<?xml version="1.0" encoding="UTF-8"?>
<mxfile host="app.diagrams.net" modified="2025-07-14T12:00:00.000Z" agent="5.0 (Windows)" version="16.0.1" type="device">
  <diagram id="AWS_Docker_Build" name="Page-1">
    <mxGraphModel dx="827" dy="554" grid="1" gridSize="10" guides="1" tooltips="1" connect="1" arrows="1" fold="1" page="1" pageScale="1" pageWidth="827" pageHeight="1169">
      <root>
        <mxCell id="0" />
        <mxCell id="1" parent="0" />
        <!-- S3 Bucket -->
        <mxCell id="2" value="S3 Bucket" style="rounded=1;whiteSpace=wrap;html=1;fillColor=#FFBB00;strokeColor=#000000;" vertex="1" parent="1">
          <mxGeometry x="80" y="80" width="120" height="60" as="geometry" />
        </mxCell>
        <!-- EventBridge -->
        <mxCell id="3" value="EventBridge" style="rounded=1;whiteSpace=wrap;html=1;fillColor=#E24A00;strokeColor=#000000;" vertex="1" parent="1">
          <mxGeometry x="260" y="80" width="120" height="60" as="geometry" />
        </mxCell>
        <!-- CodeBuild -->
        <mxCell id="4" value="CodeBuild" style="rounded=1;whiteSpace=wrap;html=1;fillColor=#1473E6;strokeColor=#000000;" vertex="1" parent="1">
          <mxGeometry x="260" y="240" width="120" height="60" as="geometry" />
        </mxCell>
        <!-- ECR -->
        <mxCell id="5" value="ECR Repository" style="rounded=1;whiteSpace=wrap;html=1;fillColor=#FF6319;strokeColor=#000000;" vertex="1" parent="1">
          <mxGeometry x="80" y="240" width="120" height="60" as="geometry" />
        </mxCell>
        <!-- Connections -->
        <mxCell id="6" style="edgeStyle=orthogonalEdgeStyle;rounded=0;html=1;strokeColor=#000000;" edge="1" parent="1" source="2" target="3">
          <mxGeometry relative="1" as="geometry">
            <mxPoint x="200" y="110" as="targetPoint" />
          </mxGeometry>
        </mxCell>
        <mxCell id="7" style="edgeStyle=orthogonalEdgeStyle;rounded=0;html=1;strokeColor=#000000;" edge="1" parent="1" source="3" target="4">
          <mxGeometry relative="1" as="geometry" />
        </mxCell>
        <mxCell id="8" style="edgeStyle=orthogonalEdgeStyle;rounded=0;html=1;strokeColor=#000000;" edge="1" parent="1" source="4" target="5">
          <mxGeometry relative="1" as="geometry" />
        </mxCell>
        <!-- Edge Label -->
        <mxCell id="9" value="Object Created" style="text;html=1;align=center;verticalAlign=middle;" vertex="1" connectable="0" parent="6">
          <mxGeometry x="0.5" y="-20" relative="1" as="geometry">
            <mxPoint as="offset" />
          </mxGeometry>
        </mxCell>
      </root>
    </mxGraphModel>
  </diagram>
</mxfile>